# xmcd
#
# Track frame offsets:
#	150
#	13725
#	25580
#	36937
#	49032
#	62172
#	77105
#	89615
#	103290
#	119372
#	131870
#	154970
#	169825
#	184625
#	199165
#	213322
#	229345
#	245007
#	266540
#	284330
#	296187
#	315077
#
# Disc length: 4412
#
# Revision: 2
# Processed by: cddbd v1.5.1PL0 Copyright (c) Steve Scherf et al.
# Submitted via: ExactAudioCopy v0.95a4
# Normalized: r1:DSETVAR1
#
DISCID=48113a16
DTITLE=Various Artist - Soul Spectacular! 4
DYEAR=1900
DGENRE=
TTITLE0=Jackson 5 - I Want You Back
TTITLE1=Tyrone Davis - Turn Back The Hands of Time
TTITLE2=Mel and Tim - Backfield in Motion
TTITLE3=Chairmen of The Board - Give Me Just A Little More Time
TTITLE4=Freda Payne - Band of Gold
TTITLE5=The 5 Stairsteps - O-O-H Child
TTITLE6=Honey Cone - Want Ads
TTITLE7=King Floyd - Groove Me
TTITLE8=The Staple Singers - Respect Yourself
TTITLE9=Cornelius Brothers and Sister Rose - Treat Her Like A Lady
TTITLE10=Dramatics - In The Rain
TTITLE11=Al Green - Let's Stay Together
TTITLE12=The Stylistics - Betcha By Golly, Wow
TTITLE13=Chi-Lites - Oh Girl
TTITLE14=O'Jays - Back Stabbers
TTITLE15=Spinners - One Of A Kind (Love Affair)
TTITLE16=Harold Melvin and The Blue Notes - If You Don't Know Me By Now
TTITLE17=Billy Paul - Me And Mrs. Jones
TTITLE18=Gladys Knight and The Pips - Midnight Train To Georgia
TTITLE19=Bobby Womack - Lookin' For A Love
TTITLE20=Blue Magic - Sideshow
TTITLE21=Manhattans - Kiss and Say Goodbye
EXTD=
EXTT0=
EXTT1=
EXTT2=
EXTT3=
EXTT4=
EXTT5=
EXTT6=
EXTT7=
EXTT8=
EXTT9=
EXTT10=
EXTT11=
EXTT12=
EXTT13=
EXTT14=
EXTT15=
EXTT16=
EXTT17=
EXTT18=
EXTT19=
EXTT20=
EXTT21=
PLAYORDER=
